<?xml version="1.0" encoding="utf-8"?>
<!-- Generator: Adobe Illustrator 21.1.0, SVG Export Plug-In . SVG Version: 6.00 Build 0)  -->
<svg version="1.1" id="Layer_1" xmlns="http://www.w3.org/2000/svg" xmlns:xlink="http://www.w3.org/1999/xlink" x="0px" y="0px"
	 viewBox="0 0 72 72" style="enable-background:new 0 0 72 72;" xml:space="preserve">
<style type="text/css">
	.st0{fill:#ED1C24;}
</style>
<path class="st0" d="M21.6,29c-4.8,2.3-9.1,5.2-11.7,7c2.6,1.9,6.9,4.7,11.7,7.1C20.6,40.9,20,38.5,20,36C20,33.5,20.6,31.1,21.6,29
	z"/>
<path class="st0" d="M26.7,30.2c-1,1.7-1.7,3.7-1.7,5.8c0,2.1,0.6,4.1,1.7,5.8l5.8-5.8L26.7,30.2z"/>
<path class="st0" d="M41.8,26.7c-1.7-1-3.7-1.7-5.8-1.7c-2.1,0-4.1,0.6-5.8,1.7l5.8,5.8L41.8,26.7z"/>
<path class="st0" d="M50.3,43.1c4.9-2.3,9.1-5.2,11.7-7.1c-2.6-1.8-6.9-4.7-11.7-7c1,2.1,1.6,4.5,1.6,7C52,38.5,51.4,40.9,50.3,43.1
	z"/>
<path class="st0" d="M36,47c2.1,0,4.1-0.6,5.8-1.7L36,39.5l-5.8,5.8C31.9,46.4,33.9,47,36,47z"/>
<path class="st0" d="M45.3,41.8c1.1-1.7,1.7-3.7,1.7-5.8c0-2.1-0.6-4.1-1.7-5.8L39.5,36L45.3,41.8z"/>
<g>
	<path class="st0" d="M52,36c0,2.5-0.6,4.9-1.7,7.1c4.9-2.3,9.1-5.2,11.7-7.1c-2.6-1.8-6.9-4.7-11.7-7C51.4,31.1,52,33.5,52,36z"/>
	<path class="st0" d="M21.6,29c-4.8,2.3-9.1,5.2-11.7,7c2.6,1.9,6.9,4.7,11.7,7.1C20.6,40.9,20,38.5,20,36
		C20,33.5,20.6,31.1,21.6,29z"/>
	<path class="st0" d="M0,0v72h72V0H0z M67.8,37.9C67.3,38.3,60.3,44,51.6,48l3.6,3.6l-3.5,3.5L46.5,50c-3.5,1.2-7,2-10.5,2
		c-3.5,0-7.1-0.8-10.5-2l-5.3,5.3l-3.5-3.5l3.8-3.8c-8.8-4-15.8-9.7-16.2-10.1L1.8,36l2.4-1.9c0.5-0.4,7.5-6,16.3-10l-3.7-3.7
		l3.5-3.5l5.2,5.2c3.5-1.2,7.1-2,10.5-2c3.4,0,7,0.8,10.5,2l5.3-5.3l3.5,3.5L51.5,24c8.7,4,15.8,9.7,16.3,10l2.4,1.9L67.8,37.9z"/>
</g>
<g>
	<path class="st0" d="M41.8,26.7c-1.7-1-3.7-1.7-5.8-1.7c-2.1,0-4.1,0.6-5.8,1.7l5.8,5.8L41.8,26.7z"/>
	<path class="st0" d="M26.7,30.2c-1,1.7-1.7,3.7-1.7,5.8c0,2.1,0.6,4.1,1.7,5.8l5.8-5.8L26.7,30.2z"/>
	<path class="st0" d="M30.2,45.3c1.7,1.1,3.7,1.7,5.8,1.7c2.1,0,4.1-0.6,5.8-1.7L36,39.5L30.2,45.3z"/>
	<path class="st0" d="M45.3,30.2L39.5,36l5.8,5.8c1.1-1.7,1.7-3.7,1.7-5.8C47,33.9,46.4,31.9,45.3,30.2z"/>
</g>
</svg>
